# xmcd
#
# Track frame offsets: 
#        150
#        13234
#        25692
#        35867
#        47616
#        59959
#        67765
#        80484
#        91660
#        101521
#        108053
#        117107
#        127081
#        136230
#        146436
#        157701
#        165576
#        172059
#
# Disc length: 2433 seconds
#
# Revision: 0
# Processed by: cddbd v1.5.1PL0 Copyright (c) Steve Scherf et al.
# Submitted via: ExactAudioCopy v0.95b3
#
DISCID=e8097f12
DTITLE=Mickey Gilley - The Crazy Cajun Recordings
DYEAR=1998
DGENRE=Country
TTITLE0=Love Fever
TTITLE1=Just Out Of Reach (Of My Two Empty Arms)
TTITLE2=Found That Girl At A Drive-In Movie
TTITLE3=Bring My Baby Back To Me
TTITLE4=It Wasn't God Who Made Honky Tonk Angels
TTITLE5=Dreaming Of You
TTITLE6=Still Care About You
TTITLE7=I Still Miss You
TTITLE8=Whole Lot Of Twinstin' Going On
TTITLE9=Now That I Have You
TTITLE10=Lonely, Lonely Man
TTITLE11=Fraulein
TTITLE12=You Mean So Very Much To Me
TTITLE13=I Miss You So
TTITLE14=I'm Living In A World Of My Own
TTITLE15=I've Been Searching
TTITLE16=The Boy Who Didn't Pass
TTITLE17=Dreaming Of You [alternate take]
EXTD=
EXTT0=
EXTT1=
EXTT2=
EXTT3=
EXTT4=
EXTT5=
EXTT6=
EXTT7=
EXTT8=
EXTT9=
EXTT10=
EXTT11=
EXTT12=
EXTT13=
EXTT14=
EXTT15=
EXTT16=
EXTT17=
PLAYORDER=
